<svg xmlns="http://www.w3.org/2000/svg" width="1240" height="1240"><path d="M87.341 253.092C68.43 256.263 52.71 269.863 45.835 289l-2.335 6.5v643l2.598 7.102c6.382 17.442 19.895 29.92 37.455 34.584 4.057 1.078 100.853 1.314 537.947 1.314h533l7.102-2.598c16.646-6.09 27.462-17.027 33.566-33.94l2.332-6.462v-643l-2.335-6.5c-5.849-16.282-17.431-28.006-33.449-33.862l-7.216-2.638-531-.136c-294.856-.076-533.294.248-536.159.728M925.5 306.607c-1.1.227-4.475.905-7.5 1.508-8.004 1.593-18.636 7.528-25.151 14.039-7.292 7.289-13.448 19.469-14.83 29.346-1.336 9.546-1.336 527.454 0 537 2.193 15.671 13.292 31.269 27.484 38.628 12.693 6.581 9.332 6.372 102.497 6.372 93.165 0 89.804.209 102.497-6.372 14.192-7.359 25.291-22.957 27.484-38.628 1.336-9.546 1.336-527.454 0-537-2.145-15.329-13.203-31.125-26.862-38.372-12.928-6.858-7.902-6.52-100.119-6.737-45.925-.109-84.4-.011-85.5.216" fill="undefined" fill-rule="evenodd"/></svg>